<svg width="31" height="37" viewBox="0 0 31 37" fill="none" xmlns="http://www.w3.org/2000/svg">
<g clip-path="url(#clip0_601_7)">
<path d="M11.0748 17.0856C9.44649 16.6489 8.26679 15.2381 8.12516 13.5582C7.98352 11.8783 8.91037 10.29 10.4426 9.58676C11.9748 8.88357 13.7834 9.21653 14.9647 10.4193L22.9525 5.80752C22.4156 3.86903 23.4037 1.83369 25.2589 1.05647C27.1142 0.279257 29.2579 1.00259 30.2631 2.74492C31.2682 4.48726 30.8211 6.70515 29.2196 7.9221C27.618 9.13905 25.3614 8.97547 23.9521 7.54027L15.9655 12.1513C16.35 13.5349 15.9634 15.0183 14.9525 16.0382C13.9417 17.0581 12.4617 17.4578 11.0748 17.0856ZM12.6277 11.2901C11.5608 11.0042 10.4641 11.6374 10.1782 12.7043C9.89234 13.7712 10.5255 14.8679 11.5924 15.1538C12.6594 15.4397 13.756 14.8065 14.0419 13.7396C14.3278 12.6726 13.6947 11.576 12.6277 11.2901ZM27.3247 2.8048C26.269 2.52308 25.1826 3.14069 24.8847 4.19191C24.5869 5.24312 25.1877 6.33884 26.2343 6.65282C27.2808 6.96679 28.3856 6.3828 28.7156 5.34122L28.612 5.72759L28.7389 5.25429C29.0248 4.18735 28.3916 3.09068 27.3247 2.8048Z" fill="#fff"/>
<path d="M2.0937 35.6658C0.633899 34.8225 -0.140469 33.1544 0.157515 31.4951C0.4555 29.8358 1.76186 28.5414 3.42386 28.2588C5.08586 27.9761 6.74667 28.7658 7.57646 30.2333L16.4857 27.8461C16.4688 25.8347 17.95 24.1245 19.9432 23.8539C21.9364 23.5833 23.8199 24.8369 24.3398 26.78C24.8597 28.7231 23.8539 30.7497 21.9919 31.5107C20.1299 32.2716 17.9926 31.5296 17.0027 29.7785L8.09488 32.1654C8.10819 33.6013 7.35078 34.9342 6.1104 35.6576C4.87002 36.3811 3.33699 36.3842 2.0937 35.6658ZM5.0937 30.4696C4.13711 29.9173 2.91393 30.2451 2.36164 31.2017C1.80936 32.1582 2.13711 33.3814 3.0937 33.9337C4.05028 34.486 5.27346 34.1582 5.82575 33.2017C6.37803 32.2451 6.05028 31.0219 5.0937 30.4696ZM21.486 26.0773C20.5392 25.532 19.33 25.8474 18.7702 26.7857C18.2104 27.724 18.5072 28.9379 19.4368 29.512C20.3664 30.0861 21.5847 29.808 22.173 28.8873L21.973 29.2337L22.218 28.8094C22.7703 27.8528 22.4426 26.6296 21.486 26.0773Z" fill="#fff"/>
<path d="M8.18439 12.1839C8.62112 10.5556 10.0319 9.37592 11.7118 9.23429C13.3917 9.09266 14.9801 10.0195 15.6833 11.5517C16.3865 13.0839 16.0535 14.8925 14.8507 16.0739L19.4625 24.0616C21.401 23.5248 23.4363 24.5128 24.2135 26.3681C24.9908 28.2233 24.2674 30.3671 22.5251 31.3722C20.7828 32.3773 18.5649 31.9303 17.3479 30.3287C16.131 28.7271 16.2945 26.4706 17.7297 25.0612L13.1187 17.0747C11.7352 17.4592 10.2517 17.0725 9.23183 16.0617C8.21195 15.0508 7.81219 13.5708 8.18439 12.1839ZM13.9799 13.7368C14.2658 12.6699 13.6327 11.5732 12.5657 11.2874C11.4988 11.0015 10.4021 11.6346 10.1162 12.7016C9.83035 13.7685 10.4635 14.8652 11.5305 15.1511C12.5974 15.4369 13.6941 14.8038 13.9799 13.7368ZM22.4652 28.4338C22.7469 27.3781 22.1293 26.2918 21.0781 25.9939C20.0269 25.696 18.9312 26.2969 18.6172 27.3434C18.3032 28.3899 18.8872 29.4947 19.9288 29.8247L19.5424 29.7212L20.0157 29.848C21.0827 30.1339 22.1793 29.5007 22.4652 28.4338Z" fill="#fff"/>
</g>
<defs>
<clipPath id="clip0_601_7">
<rect width="31" height="37" fill="white"/>
</clipPath>
</defs>
</svg>
